<?xml version="1.0" encoding="utf-8"?>
<!-- Generator: Adobe Illustrator 23.0.2, SVG Export Plug-In . SVG Version: 6.00 Build 0)  -->
<svg version="1.1" id="Layer_1" xmlns="http://www.w3.org/2000/svg" xmlns:xlink="http://www.w3.org/1999/xlink" x="0px" y="0px"
	 viewBox="0 0 3113.2 1000" style="enable-background:new 0 0 3113.2 1000;" xml:space="preserve">
<style type="text/css">
	.st0{fill:#E20010;}
</style>
<g>
	<title>Nigeria-Logo</title>
	<path class="st0" d="M665.6,18.3c58.8,0.9,114.9,12,167.3,38.6c46.2,23.6,83.9,56.7,109.6,102.3c16.7,30.1,27.7,63,32.4,97.1
		c9.6,65.5-0.1,128.8-21.7,190.7c-12.7,36.3-30.2,70.3-49.3,103.9c-38.7,68.1-88.6,127.2-146.4,179.5
		c-74.3,67.3-155.8,126.1-242.9,175.5c-33.8,19.1-68.8,35.1-106.5,44.9c-23.1,6.3-46.9,9.3-70.8,9c-31.5-0.6-56.1-15-75.2-39
		c-17.7-21.7-26.7-49.1-25.6-77c0.2-7.8,1.3-15.5,3.3-23c11.4-40.4,26.9-79.2,50-114.5c17.7-27,38.7-50.9,66.3-68.1
		c30.6-19.1,64-27.3,100-19.4c11.2,2.6,21.9,7.6,31.2,14.5c23.7,16.9,22.4,43.6,11.1,60.5c-9.7,14.8-20.7,28.7-32.6,41.7
		c-20.3,21.8-41.7,42.5-62.8,63.5c-18.6,18.7-36,38.3-50.3,60.6c-7.3,11.5-14.1,23.4-16.2,37.3c-2.6,17.5,6.5,29.3,24.2,31
		c9.1,0.8,18.2-0.2,27.1-2.7c27.1-7.4,52.2-19.5,76.9-32.6c38.1-20.2,73.2-44.8,107.4-70.6c41.5-31.5,81.9-64.3,119.1-100.7
		c42.4-41.5,80.1-86.6,109-138.7c21.1-38.1,36.7-78.2,43.6-121.2c6.1-38,2.7-74.9-14.9-109.7c-8.4-17.3-21.7-31.6-38.2-41.5
		c-7.6-4.5-16-7.7-24.7-9.2c-31.7-5.6-62.5-1-92.7,9.1c-31.5,10.6-60.6,25.9-89,42.6c-61.6,36.6-123.3,73-182,114.2
		c-29.4,20.6-57.9,42.5-86.8,64c-26,19.4-51.9,38.9-80.4,54.8c-23.1,13.2-48.1,22.7-74.1,28.2c-32.3,6.6-61.9,0.4-89.2-17
		c-28.4-18.2-48.1-43.1-56.8-76.1c-5.5-20.8-3.3-41.5,1.4-62.1c7-30.2,20.3-57.6,36.8-83.5c40.9-64.1,92.2-118.4,152-164.9
		c88.6-68.8,186-121.9,291.4-160.3C551,29.6,608,19.2,665.6,18.3z"/>
	<g>
		<path class="st0" d="M1320.6,523.9c-0.4-26.5-3.4-50.5-18.8-71.3c-7.4-10-17.8-17.5-29.7-21.5c-30.5-11-61.6-9.7-92-0.3
			c-24.2,7.6-47.8,17.8-71.6,26.9c-4.7,1.7-9,4-14.7,6.6c-11.3-27.8-22.2-54.7-33.8-83c16.7-8,32.4-16,48.6-23
			c37.4-16,76.1-26.9,116.9-29.4c40.8-2.4,81-0.3,118,19.5c41.9,22.2,72.3,54.3,85,100.9c1.9,6.1,3,12.4,3.3,18.8
			c1.6,60.6,3.8,121.2,4,181.9c0.1,41.5-2.6,82.8-3.8,124.3c-0.3,5.7-2.6,11.1-6.6,15.1c-28.9,31.9-64.4,54-104.6,68.9
			c-43.1,15.7-89,22.4-134.9,19.4c-42.3-2.3-78.8-19.7-109.6-48.3c-30.8-28.7-52.5-63.4-58.5-105.9c-8.3-58.2,8.6-108.8,50.5-150.3
			c26.9-26.7,60-40.5,97.4-45.5c41.3-5.4,82.8-4,124.3-3.8L1320.6,523.9z M1315.2,618.4c-2.4-0.4-4.8-0.9-7.4-1
			c-14.1-0.3-28.4-0.7-42.5-0.6c-17,0.3-34.1,0.3-50.9,2c-17.4,1.7-34.4,6.7-47.9,18.4c-22.4,19.4-29.1,44.6-23.7,73.1
			c6.8,35.2,26.5,59.9,61.6,70.3c18.1,5.4,37.2,6.3,55.7,2.3c17.3-3.1,33.2-10.8,46.5-22.2c4.6-3.6,7.3-8.8,7.7-14.5
			c0.6-12.4,2.1-24.7,2.3-37.1c0.1-28.4-0.3-56.7-0.4-85C1315.8,622.3,1315.6,620.3,1315.2,618.4z"/>
		<path class="st0" d="M2733.1,616.1c-100.8,0-199.6-2.1-299.8,0.4c0.6,7,0.9,13.7,1.4,20.2c2.6,26.7,8.3,52.5,19.5,76.8
			c8.7,20,22.4,37.4,39.5,50.6c27.2,20.7,58.3,24.1,91,19.8c26.9-3.4,52-13.4,77.1-23.2c11.5-4.6,22.8-9.4,35.2-14.4
			c11.7,24.5,23.2,48.8,35.2,73.6c-2.1,1.6-4.3,3.4-6.6,4.7c-48.9,28.9-101.4,47.6-158,52.6c-51.6,4.4-100.9-4-145.6-32.5
			c-30.4-19.5-51.6-46.9-69.4-77.7c-22-38.2-35.2-80.8-38.9-124.9c-7.4-80.1,9.6-154.8,51-223.8c28.9-48,72.1-74.1,126.2-83.1
			c49.8-8.7,100.9-0.3,145.1,24.1c24.8,13.4,42.1,34.5,56.2,58.2c18.8,31.2,28.7,65.6,33.4,101.2c3.8,28.8,5.1,57.9,7.4,87
			C2733.4,608.7,2733.1,611.7,2733.1,616.1z M2611.1,524.9c-5.8-26.8-9.8-54.2-27.4-76.8c-8.8-11.3-21.1-19.2-35.1-22.7
			c-36.9-9.8-74.1,7.3-90.1,42.3c-5.7,12.4-9,26.1-13.1,39.2c-1.9,6-3,12.1-4.6,18.1C2450.9,527.4,2600.8,527.6,2611.1,524.9
			L2611.1,524.9z"/>
		<path class="st0" d="M2072.2,206.8l120.2-18.5V336c26.7,1.6,52-0.1,77.7,2.6v91c-25.8,0.4-51.2-0.3-77.6,1.3c0,5.1,0,9,0,12.8
			c-0.3,87.5-0.4,175.1-0.6,262.7c0,13.8,1.1,27.7,2.3,41.3c2,21.1,13.7,34.5,34.2,39.6c11.3,2.9,23,4.4,34.4,6.7l11.5,2.3v77.1
			c-1.3,0.6-2.7,1.1-4.1,1.4c-34.1,1.6-68.1,0.6-101.1-9.4c-32.2-9.7-59-27.4-77.3-56.3c-10.4-16.4-15.7-34.9-18-54
			c-1.4-12-2-24-2-36.1c0-166.2,0.1-332.5,0.3-498.8V206.8z"/>
		<path class="st0" d="M2799.3,207l116.2-20.1V203c0,151,0,301.9,0.1,453.1c0,27.7,0.3,55.3,0.4,83c0.1,27.2,10.1,41.2,36.2,49.3
			c8.8,2.4,17.8,4.4,26.9,5.8c5.6,1,11.1,1.6,18,2.3V875c-0.6,0.6-1.4,0.9-2.1,1c-33.1,1.3-65.9,0.9-97.9-8.6
			c-19.4-5.6-37.5-15.1-53.2-27.9c-29.2-24-41.1-55.9-44.2-92c-0.9-10.5-0.7-21.2-0.7-31.9c0-165.2,0.1-330.3,0.3-495.5V207z"/>
		<path class="st0" d="M1838.5,868h-117.5c-0.1-4.8-0.4-9.4-0.4-13.8c-0.1-70.6-0.3-141.1-0.3-211.7c-0.1-56.3-0.4-112.8-0.4-169.1
			c0-10.3,0.9-20.4,2.3-30.5c1.7-11.5,7.8-21.1,16.1-29.2c46.2-44.9,101.4-71.9,164.4-83.4c39.5-7.3,80-7.3,119.5-0.1
			c2.1,0.4,4.1,0.9,6.3,1.4c1,0.3,2,0.7,4,1.6c-13.4,33.9-29.7,66.3-44.9,98.4c-18.2,0-35.6-0.6-52.9,0.1c-29.8,1-59.2,8.3-86,21.4
			c-7.6,3.7-10.4,8.4-10.4,17.1c0.3,128.4,0.4,256.8,0.3,385.2V868z"/>
		<path class="st0" d="M1634.5,340.8c1.3,175.9-0.1,350.8,1,526.9h-114.9c-0.3-4.3-0.9-8.7-0.9-13.1c0-110.6,0-221.3,0-331.9
			c0-50.8,0.4-101.4,0.6-152.1c0-3.8,0-7.7,0-12.5L1634.5,340.8z"/>
		<path class="st0" d="M1572.2,289.1c-56.2-0.1-91.2-56-68-108.8c14.3-32.4,38.9-44.6,74.3-44.5c47.5,0.4,82.7,47.6,71.4,93.8
			C1641,266.6,1611.3,289.1,1572.2,289.1z"/>
	</g>
</g>
</svg>
