<?xml version="1.0" encoding="utf-8"?>
<!-- Generator: Adobe Illustrator 23.0.2, SVG Export Plug-In . SVG Version: 6.00 Build 0)  -->
<svg version="1.1" id="Layer_1" xmlns="http://www.w3.org/2000/svg" xmlns:xlink="http://www.w3.org/1999/xlink" x="0px" y="0px"
	 viewBox="0 0 286.4 135.3" style="enable-background:new 0 0 286.4 135.3;" xml:space="preserve">
<style type="text/css">
	.st0{fill:#23ABFE;}
</style>
<g>
	<path d="M138.2,57.3c4.8-5.9,11-7.1,17.8-6.2c6.2,0.8,10.6,5.1,10.9,11.4c0.4,9.7,0.1,19.6,0.3,29.5c0,1-0.3,1.3-1.3,1.3
		c-4.1,0-8.2,0-12.1,0c-1.1,0-1.6-0.3-1.6-1.6c0-8,0-16.1,0-24.3c0-4-1.8-5.6-5.8-5.4c-2.5,0.3-4.2,2.1-4.5,5.2
		c-0.1,1.8-0.1,3.7-0.1,5.6c0,6.2,0,12.6,0,18.8c0,1.1-0.3,1.4-1.4,1.4c-4.1,0-8.2,0-12.1,0c-1.3,0-1.4-0.4-1.4-1.6
		c0-9.3,0-18.6,0-27.9c0-1.3-0.4-1.6-1.6-1.6c-3.4,0-3.4,0-3.4-3.4c0-2,0-4.1,0-6.1c0-0.8,0.1-1.3,1.3-1.3c4,0,7.8,0,11.7,0
		c0.8,0,1.3,0.3,1.6,1C136.7,54,137.4,55.5,138.2,57.3z"/>
	<path d="M252,72.6c0-3.5,0-6.5,0-9.3c0-1.3-0.4-1.6-1.6-1.4c-1.4,0.1-2.8,0-4.2,0c-0.8,0-1.3-0.1-1.1-1.1c0-2.7,0-5.4,0-8.2
		c0-1,0.3-1.1,1.1-1.1c1.6,0,3.1,0,4.5,0c0.8,0,1.1-0.3,1.1-1.1c0-2.5,0-4.9,0-7.5c0-0.8,0.1-1.3,1.1-1.4c4.2-0.8,8.3-1.8,12.4-2.8
		c1.1-0.3,1.4,0,1.3,1.1c0,3.4,0,6.8,0,10.2c0,1.4,0.4,1.7,1.7,1.6c2.3-0.1,4.4,0,6.6,0c0.8,0,1.1,0.1,1.1,1.1c0,2.7,0,5.4,0,8.2
		c0,1-0.3,1.1-1.1,1.1c-2.3,0-4.7,0-6.9,0c-1,0-1.4,0.1-1.4,1.3c0,5.5,0,11,0,16.4c0,2.4,1.3,3.7,3.7,3.7c2.5,0,4.8-0.8,7.1-2
		c1.1-0.6,1.3-0.1,1.1,0.7c-0.4,2.5-0.3,5.1-0.6,7.8c0,0.6-0.3,0.8-0.8,1.1c-6.1,3-12.4,4.1-18.9,1.7c-4.4-1.7-5.9-5.5-6.4-9.9
		C251.8,79.1,252.1,75.4,252,72.6z"/>
	<path d="M35.8,57.8c0,1.1-0.1,2.3,0,3.4c0.1,1.6-0.4,1.6-1.7,1.1c-4.4-1.6-8.7-2.1-13.3-1.4c-0.4,0-0.7,0.1-1.1,0.3
		c-1,0.3-1.8,1-1.8,2c0,0.8,0.7,1.6,1.6,2c1.7,0.8,3.5,1,5.2,1.3c3.1,0.6,5.9,1.7,8.7,3c3.4,1.6,4.9,4.2,5.6,7.8
		c1.1,5.2-1.3,11.6-6.4,14c-4,2-8,2.7-12.4,2.5c-2.3-0.1-4.4-0.3-6.6-0.4c-0.7,0-1.1-0.1-1.1-1c0-3,0.1-5.8-0.4-8.7
		C12,82.9,12.5,83,13.2,83c2.7,0.4,5.4,1,8,0.8c2.3-0.1,4-1,4.1-2.3c0.1-1.1-1.3-2.3-3.4-2.7c-3.8-0.8-7.8-1.7-11.4-3.2
		c-4-1.8-6.4-5.2-6.5-9.6c0-2.8,0.1-5.6,1.7-8c2-3.1,4.9-4.7,8.2-5.8c5.9-2,12-1.6,17.9-0.3c3.8,0.8,3.7,1,3.7,4.8
		C35.8,57.1,35.8,57.3,35.8,57.8z"/>
	<path d="M197.2,83c-0.1,2.7-0.3,4.9-0.3,7.3c0,0.6-0.1,1-0.6,1.1c-4.7,2.4-9.5,3.2-14.5,1.4c-4-1.4-5.1-4.9-5.1-8.7
		c0-12.6,0-25,0-37.5c0-1.4-0.4-1.7-1.8-1.7c-3.4,0.1-3.4,0-3.4-3.2c0-2,0-4.1,0-6.1c0-0.8,0.1-1.1,1.1-1.1c5.9,0,11.9,0,17.8,0
		c1.4,0,1.1,0.8,1.1,1.7c0,14.8,0,29.5,0,44.3c0,4,1,4.7,4.7,3.1C196.5,83.3,196.8,83.2,197.2,83z"/>
	<path d="M118.9,83.2c-0.1,2.5-0.3,4.9-0.6,7.3c0,0.4,0,1-0.6,1.1c-4.7,2.3-9.5,3.1-14.4,1.4c-3.7-1.3-4.9-4.5-5.1-8.2
		c-0.1-7.2-0.1-14.3-0.1-21.5c0-1.3-0.4-1.6-1.6-1.6c-3.5,0-3.5,0-3.5-3.5c0-1.8,0-3.7,0-5.6c0-0.8,0.3-1.1,1.1-1.1
		c5.9,0,11.9,0,17.8,0c1.3,0,1.1,0.7,1.1,1.6c0,9,0,18.2,0,27.2c0,3.7,0.3,4.9,4.9,3.1C118.3,83.3,118.5,83.2,118.9,83.2z"/>
	<path class="st0" d="M91.8,31.4c0.4-3.4,0.3-6.8,1-10.2c0.3-1,0.7-1.8,1.3-2.7c0.7-1.1,2.7-1.4,4.7-0.8c4,1.3,7.6,3.4,11.1,5.4
		c2.5,1.6,5.1,3.1,7.3,5.2c0.7,0.6,1.3,1.3,1.7,2c0.7,1.1,0.6,2.1-0.4,3.1c-3.1,3.4-7.1,5.5-11,7.8c-3.2,1.8-6.5,3.5-10.2,4.5
		c-1.8,0.4-2.8,0-3.7-1.7c-0.8-1.7-1.4-3.7-1.4-5.5C92.2,36,91.6,33.8,91.8,31.4z"/>
	<path d="M83.9,62.7c-2.1-8-7.5-11.9-15.4-12c-5.5-0.1-10.3,1.8-14,6.5c-0.8-1.8-1.5-3.4-2.5-5c-0.3-0.5-0.7-0.8-1.4-0.8
		c-4,0-8,0-12,0c-1-0.2-1.1,0.3-1.1,1.1c0,1.9,0,3.9,0,5.9c0,3.5,0,3.5,3.4,3.5c1.3-0.1,1.7,0.2,1.7,1.6
		c-0.1,14.9-0.1,29.7-0.1,44.5c0,1.3,0.3,1.6,1.6,1.6c4-0.1,7.9-0.1,11.9,0c1.3,0,1.7-0.3,1.7-1.7c0-4.5,0-9,0-13.5
		c0-0.8,0.3-1.2,1.3-1.1c4,0.4,7.9,0.5,11.9-0.6C77.6,90.9,82,86.5,84,79.9C85.7,74.3,85.5,68.3,83.9,62.7z M68.9,80.2
		c-0.8,2.1-2.4,3.1-4.4,3.5c-2,0.4-4.1,0.1-6.1,0c-0.8,0-0.7-0.6-0.7-1.1c0.2-2.5,0.2-5.1,0.2-7.6c0-2.4,0-4.8,0-7.1
		c0-4.9,4.2-7.6,8.7-5.5c2,0.8,2.5,2.7,3,4.5C70.6,71.3,70.7,75.8,68.9,80.2z"/>
	<path d="M241.8,71.7c0.1-1.1,0-2.4,0-3.5c-0.2-6.4-3.2-11.2-8.7-14.3c-6.3-3.5-13.2-3.8-20-1.4c-5,1.7-8.4,5.1-10.6,10
		c-2.2,4.9-2.6,10-1.6,15.2c1,5.9,4,10.4,9.2,13.4c4.8,2.7,10,3,15.4,2.7c4.6-0.3,8.8-1.7,12.6-4c0.8-0.4,1.5-0.7,1.6-1.7
		c0.3-2.7,0.3-5.5,0.4-8.5c-0.4,0.2-0.6,0.2-0.8,0.3c-4.6,3-9.7,4.1-15.2,4c-4.4-0.1-7.8-2.8-8.2-6.6h19.8
		C239.5,77.2,241.4,75.5,241.8,71.7z M223.7,69.1c-0.7,0.2-1.5,0.2-2.4,0.2h-4.8c-1,0-1.3-0.1-1.1-1.3c0.1-1.4,0.4-2.8,1-4.2
		c1-2.4,2.5-3.4,4.9-3.4c2.4,0,4.2,1.1,5.1,3.4c0.1,0.4,0.3,0.7,0.4,1.1C227.9,68.4,227.4,69.1,223.7,69.1z"/>
</g>
</svg>
